<svg xmlns="http://www.w3.org/2000/svg" width="600" height="480" viewBox="0 0 600 480" preserveAspectRatio="xMidYMid meet">
  <defs>
    <linearGradient id="purple-gradient" x1="0%" y1="0%" x2="100%" y2="100%">
      <stop offset="0%" stop-color="#7c5cff" />
      <stop offset="100%" stop-color="#5aa1ff" />
    </linearGradient>
    <linearGradient id="purple-gradient-2" x1="0%" y1="100%" x2="100%" y2="0%">
      <stop offset="0%" stop-color="#7c5cff" />
      <stop offset="100%" stop-color="#5aa1ff" />
    </linearGradient>
    <filter id="shadow" x="-20%" y="-20%" width="140%" height="140%">
      <feDropShadow dx="0" dy="8" stdDeviation="8" flood-color="#000" flood-opacity="0.3" />
    </filter>
    <clipPath id="screenMask">
      <rect x="150" y="60" width="320" height="240" rx="10" />
    </clipPath>
  </defs>
  
  <rect x="100" y="300" width="420" height="20" rx="5" fill="#111827" />
  
  
  <rect x="120" y="60" width="380" height="260" rx="15" fill="#0d1424" filter="url(#shadow)" />
  <rect x="150" y="60" width="320" height="240" rx="10" fill="#060e1f" />
  
  <g clip-path="url(#screenMask)">
    <rect x="150" y="60" width="320" height="240" fill="#010714" />
    
    <rect x="150" y="60" width="60" height="240" fill="#05091a" />
    <rect x="160" y="75" width="40" height="8" rx="4" fill="#171e30" />
    <rect x="160" y="95" width="30" height="8" rx="4" fill="#171e30" />
    <rect x="160" y="115" width="35" height="8" rx="4" fill="#171e30" />
    <rect x="160" y="135" width="25" height="8" rx="4" fill="#171e30" />
    <rect x="160" y="155" width="38" height="8" rx="4" fill="#171e30" />
    
    <rect x="220" y="75" width="30" height="8" rx="4" fill="#7c5cff" opacity="0.8" />
    <rect x="255" y="75" width="60" height="8" rx="4" fill="#5aa1ff" opacity="0.7" />
    <rect x="320" y="75" width="40" height="8" rx="4" fill="#555" />
    
    <rect x="220" y="95" width="25" height="8" rx="4" fill="#7c5cff" opacity="0.8" />
    <rect x="250" y="95" width="70" height="8" rx="4" fill="#5aa1ff" opacity="0.7" />
    <rect x="325" y="95" width="50" height="8" rx="4" fill="#555" />
    
    <rect x="240" y="115" width="40" height="8" rx="4" fill="#7c5cff" opacity="0.8" />
    <rect x="285" y="115" width="30" height="8" rx="4" fill="#5aa1ff" opacity="0.7" />
    <rect x="320" y="115" width="60" height="8" rx="4" fill="#555" />
    
    <rect x="220" y="135" width="35" height="8" rx="4" fill="#7c5cff" opacity="0.8" />
    <rect x="260" y="135" width="45" height="8" rx="4" fill="#5aa1ff" opacity="0.7" />
    <rect x="310" y="135" width="30" height="8" rx="4" fill="#555" />
    
    <rect x="240" y="155" width="20" height="8" rx="4" fill="#7c5cff" opacity="0.8" />
    <rect x="265" y="155" width="80" height="8" rx="4" fill="#5aa1ff" opacity="0.7" />
    <rect x="350" y="155" width="25" height="8" rx="4" fill="#555" />
    
    <rect x="220" y="175" width="50" height="8" rx="4" fill="#7c5cff" opacity="0.8" />
    <rect x="275" y="175" width="40" height="8" rx="4" fill="#5aa1ff" opacity="0.7" />
    <rect x="320" y="175" width="55" height="8" rx="4" fill="#555" />
    
    <rect x="240" y="195" width="30" height="8" rx="4" fill="#7c5cff" opacity="0.8" />
    <rect x="275" y="195" width="60" height="8" rx="4" fill="#5aa1ff" opacity="0.7" />
    <rect x="340" y="195" width="35" height="8" rx="4" fill="#555" />
  </g>
  
  
  <circle cx="310" cy="350" r="100" fill="url(#purple-gradient)" opacity="0.1" />
  <circle cx="410" cy="150" r="70" fill="url(#purple-gradient-2)" opacity="0.15" />
  
  
  <rect x="480" y="200" width="70" height="70" rx="8" fill="url(#purple-gradient)" opacity="0.8" transform="rotate(15)" />
  <rect x="50" y="150" width="40" height="40" rx="5" fill="url(#purple-gradient-2)" opacity="0.6" transform="rotate(-10)" />
  <circle cx="520" cy="300" r="25" fill="#7c5cff" opacity="0.5" />
  <circle cx="80" cy="340" r="20" fill="#5aa1ff" opacity="0.5" />
</svg>